# xmcd CD database file
#
# Track frame offsets:
#	151
#	16806
#	29336
#	51158
#	68780
#	86331
#	102209
#	117193
#	133878
#	150524
#	164248
#	185471
#	201880
#	220332
#	237419
#	254221
#
# Disc length: 3672 seconds
#
# Revision: 0
# Processed by: cddbd v1.5.2PL0 Copyright (c) Steve Scherf et al.
# Submitted via: CDex 1.51
#
DISCID=e70e5610
DTITLE=jazz Pigalle - Live Indeed
DYEAR=1900
DGENRE=Jazz
TTITLE0=Minor Swing
TTITLE1=AC-DC Current
TTITLE2=I Get The Blues
TTITLE3=Lulu Swing
TTITLE4=Hymn to Freedom
TTITLE5=Did I
TTITLE6=The Warthogs
TTITLE7=Fall And Fine
TTITLE8=Who Knows
TTITLE9=Sweet Loirraine
TTITLE10=Diga Diga Doo
TTITLE11=Tears
TTITLE12=Bye Bye Blackbird
TTITLE13=Petit Fleur
TTITLE14=Lady be Good
TTITLE15=Sweet Gorgia Brown
EXTD=
EXTT0=
EXTT1=
EXTT2=
EXTT3=
EXTT4=
EXTT5=
EXTT6=
EXTT7=
EXTT8=
EXTT9=
EXTT10=
EXTT11=
EXTT12=
EXTT13=
EXTT14=
EXTT15=
PLAYORDER=
